<mxfile host="app.diagrams.net" agent="Mozilla/5.0 (Windows NT 10.0; Win64; x64) AppleWebKit/537.36 (KHTML, like Gecko) Chrome/137.0.0.0 Safari/537.36 OPR/121.0.0.0 (Edition std-2)" version="28.2.3">
  <diagram name="Page-1" id="p00WBE6HMmxerrepUKE9">
    <mxGraphModel dx="1140" dy="806" grid="1" gridSize="10" guides="1" tooltips="1" connect="1" arrows="1" fold="1" page="1" pageScale="1" pageWidth="850" pageHeight="1100" math="1" shadow="0">
      <root>
        <mxCell id="0" />
        <mxCell id="1" parent="0" />
        <mxCell id="aGa-bo8kWKCsY80C1ziJ-5" style="edgeStyle=orthogonalEdgeStyle;rounded=0;orthogonalLoop=1;jettySize=auto;html=1;exitX=0.5;exitY=1;exitDx=0;exitDy=0;entryX=0.5;entryY=0;entryDx=0;entryDy=0;" parent="1" source="aGa-bo8kWKCsY80C1ziJ-1" target="aGa-bo8kWKCsY80C1ziJ-3" edge="1">
          <mxGeometry relative="1" as="geometry" />
        </mxCell>
        <mxCell id="aGa-bo8kWKCsY80C1ziJ-1" value="Program Start" style="ellipse;whiteSpace=wrap;html=1;" parent="1" vertex="1">
          <mxGeometry x="433.75" y="40" width="120" height="50" as="geometry" />
        </mxCell>
        <mxCell id="Fw4awTWvy-4AP_vdZTiC-1" style="edgeStyle=orthogonalEdgeStyle;rounded=0;orthogonalLoop=1;jettySize=auto;html=1;exitX=0.5;exitY=1;exitDx=0;exitDy=0;entryX=0.5;entryY=0;entryDx=0;entryDy=0;" edge="1" parent="1" source="aGa-bo8kWKCsY80C1ziJ-3" target="aGa-bo8kWKCsY80C1ziJ-6">
          <mxGeometry relative="1" as="geometry" />
        </mxCell>
        <mxCell id="aGa-bo8kWKCsY80C1ziJ-3" value="Display the standard&amp;nbsp;&lt;div&gt;format of a quadratic polynomial: $$ax^2 + bx + c = 0$$&lt;/div&gt;" style="shape=parallelogram;perimeter=parallelogramPerimeter;html=1;fixedSize=1;size=40;whiteSpace=wrap;" parent="1" vertex="1">
          <mxGeometry x="373.75" y="120" width="240" height="90" as="geometry" />
        </mxCell>
        <mxCell id="Fw4awTWvy-4AP_vdZTiC-3" style="edgeStyle=orthogonalEdgeStyle;rounded=0;orthogonalLoop=1;jettySize=auto;html=1;exitX=0.5;exitY=1;exitDx=0;exitDy=0;entryX=0.5;entryY=0;entryDx=0;entryDy=0;" edge="1" parent="1" source="aGa-bo8kWKCsY80C1ziJ-6" target="Fw4awTWvy-4AP_vdZTiC-2">
          <mxGeometry relative="1" as="geometry" />
        </mxCell>
        <mxCell id="aGa-bo8kWKCsY80C1ziJ-6" value="&lt;div&gt;prompt user input:&lt;/div&gt;&lt;div&gt;&quot;what are the coefficients \(a, b, c\) ?&quot;&amp;nbsp;&lt;/div&gt;&lt;div&gt;store user inputs as variables.&lt;/div&gt;" style="shape=parallelogram;perimeter=parallelogramPerimeter;whiteSpace=wrap;html=1;fixedSize=1;size=30;" parent="1" vertex="1">
          <mxGeometry x="370" y="240" width="247.5" height="70" as="geometry" />
        </mxCell>
        <mxCell id="Fw4awTWvy-4AP_vdZTiC-10" style="edgeStyle=orthogonalEdgeStyle;rounded=0;orthogonalLoop=1;jettySize=auto;html=1;exitX=0.5;exitY=1;exitDx=0;exitDy=0;entryX=0.5;entryY=0;entryDx=0;entryDy=0;" edge="1" parent="1" source="Fw4awTWvy-4AP_vdZTiC-2" target="Fw4awTWvy-4AP_vdZTiC-5">
          <mxGeometry relative="1" as="geometry" />
        </mxCell>
        <mxCell id="Fw4awTWvy-4AP_vdZTiC-11" value="FALSE" style="edgeLabel;html=1;align=center;verticalAlign=middle;resizable=0;points=[];" vertex="1" connectable="0" parent="Fw4awTWvy-4AP_vdZTiC-10">
          <mxGeometry x="-0.0678" relative="1" as="geometry">
            <mxPoint as="offset" />
          </mxGeometry>
        </mxCell>
        <mxCell id="Fw4awTWvy-4AP_vdZTiC-21" style="edgeStyle=orthogonalEdgeStyle;rounded=0;orthogonalLoop=1;jettySize=auto;html=1;exitX=0.5;exitY=1;exitDx=0;exitDy=0;entryX=0.527;entryY=0;entryDx=0;entryDy=0;entryPerimeter=0;" edge="1" parent="1" source="Fw4awTWvy-4AP_vdZTiC-2" target="Fw4awTWvy-4AP_vdZTiC-20">
          <mxGeometry relative="1" as="geometry">
            <mxPoint x="600" y="660" as="targetPoint" />
            <Array as="points">
              <mxPoint x="494" y="470" />
              <mxPoint x="600" y="470" />
            </Array>
          </mxGeometry>
        </mxCell>
        <mxCell id="Fw4awTWvy-4AP_vdZTiC-22" value="TRUE" style="edgeLabel;html=1;align=center;verticalAlign=middle;resizable=0;points=[];" vertex="1" connectable="0" parent="Fw4awTWvy-4AP_vdZTiC-21">
          <mxGeometry x="0.0074" relative="1" as="geometry">
            <mxPoint x="-60" y="-28" as="offset" />
          </mxGeometry>
        </mxCell>
        <mxCell id="Fw4awTWvy-4AP_vdZTiC-2" value="\(b^2 - 4ac &amp;lt; 0\)?" style="rhombus;whiteSpace=wrap;html=1;" vertex="1" parent="1">
          <mxGeometry x="423.75" y="370" width="140" height="60" as="geometry" />
        </mxCell>
        <mxCell id="Fw4awTWvy-4AP_vdZTiC-12" style="edgeStyle=orthogonalEdgeStyle;rounded=0;orthogonalLoop=1;jettySize=auto;html=1;" edge="1" parent="1" source="Fw4awTWvy-4AP_vdZTiC-5" target="Fw4awTWvy-4AP_vdZTiC-13">
          <mxGeometry relative="1" as="geometry">
            <mxPoint x="343.125" y="640" as="targetPoint" />
          </mxGeometry>
        </mxCell>
        <mxCell id="Fw4awTWvy-4AP_vdZTiC-5" value="&lt;div&gt;calculate root(s):&lt;/div&gt;&lt;div&gt;\(x_1 = \frac{-b + \sqrt{b^2 - 4ac}}{2a}\)&lt;/div&gt;&lt;div&gt;\(x_2 = \frac{-b- \sqrt{b^2 - 4ac}}{2a}\)&lt;/div&gt;" style="rounded=0;whiteSpace=wrap;html=1;" vertex="1" parent="1">
          <mxGeometry x="280" y="510" width="126.25" height="90" as="geometry" />
        </mxCell>
        <mxCell id="Fw4awTWvy-4AP_vdZTiC-14" style="edgeStyle=orthogonalEdgeStyle;rounded=0;orthogonalLoop=1;jettySize=auto;html=1;exitX=0.5;exitY=1;exitDx=0;exitDy=0;" edge="1" parent="1" source="Fw4awTWvy-4AP_vdZTiC-13" target="Fw4awTWvy-4AP_vdZTiC-15">
          <mxGeometry relative="1" as="geometry">
            <mxPoint x="220" y="730" as="targetPoint" />
          </mxGeometry>
        </mxCell>
        <mxCell id="Fw4awTWvy-4AP_vdZTiC-16" value="TRUE" style="edgeLabel;html=1;align=center;verticalAlign=middle;resizable=0;points=[];" vertex="1" connectable="0" parent="Fw4awTWvy-4AP_vdZTiC-14">
          <mxGeometry x="-0.2407" y="1" relative="1" as="geometry">
            <mxPoint as="offset" />
          </mxGeometry>
        </mxCell>
        <mxCell id="Fw4awTWvy-4AP_vdZTiC-17" style="edgeStyle=orthogonalEdgeStyle;rounded=0;orthogonalLoop=1;jettySize=auto;html=1;exitX=0.5;exitY=1;exitDx=0;exitDy=0;entryX=0.5;entryY=0;entryDx=0;entryDy=0;" edge="1" parent="1" source="Fw4awTWvy-4AP_vdZTiC-13" target="Fw4awTWvy-4AP_vdZTiC-19">
          <mxGeometry relative="1" as="geometry">
            <mxPoint x="390" y="820" as="targetPoint" />
          </mxGeometry>
        </mxCell>
        <mxCell id="Fw4awTWvy-4AP_vdZTiC-18" value="FALSE" style="edgeLabel;html=1;align=center;verticalAlign=middle;resizable=0;points=[];" vertex="1" connectable="0" parent="Fw4awTWvy-4AP_vdZTiC-17">
          <mxGeometry x="0.1119" y="-2" relative="1" as="geometry">
            <mxPoint x="2" y="1" as="offset" />
          </mxGeometry>
        </mxCell>
        <mxCell id="Fw4awTWvy-4AP_vdZTiC-13" value="\(x_1 = x_2\) ?" style="rhombus;whiteSpace=wrap;html=1;" vertex="1" parent="1">
          <mxGeometry x="284.69" y="630" width="116.87" height="50" as="geometry" />
        </mxCell>
        <mxCell id="Fw4awTWvy-4AP_vdZTiC-26" style="edgeStyle=orthogonalEdgeStyle;rounded=0;orthogonalLoop=1;jettySize=auto;html=1;exitX=0.5;exitY=1;exitDx=0;exitDy=0;entryX=0.5;entryY=0;entryDx=0;entryDy=0;" edge="1" parent="1" source="Fw4awTWvy-4AP_vdZTiC-15" target="Fw4awTWvy-4AP_vdZTiC-23">
          <mxGeometry relative="1" as="geometry">
            <Array as="points">
              <mxPoint x="145" y="940" />
              <mxPoint x="466" y="940" />
            </Array>
          </mxGeometry>
        </mxCell>
        <mxCell id="Fw4awTWvy-4AP_vdZTiC-15" value="&lt;div&gt;Output:&lt;/div&gt;&lt;div&gt;printf(&quot;There is one root: x = %f&quot;, x_1);&lt;/div&gt;" style="shape=parallelogram;perimeter=parallelogramPerimeter;whiteSpace=wrap;html=1;fixedSize=1;size=30;" vertex="1" parent="1">
          <mxGeometry x="20" y="760" width="250" height="60" as="geometry" />
        </mxCell>
        <mxCell id="Fw4awTWvy-4AP_vdZTiC-24" style="edgeStyle=orthogonalEdgeStyle;rounded=0;orthogonalLoop=1;jettySize=auto;html=1;exitX=0.5;exitY=1;exitDx=0;exitDy=0;" edge="1" parent="1" source="Fw4awTWvy-4AP_vdZTiC-19" target="Fw4awTWvy-4AP_vdZTiC-23">
          <mxGeometry relative="1" as="geometry">
            <Array as="points">
              <mxPoint x="343" y="940" />
              <mxPoint x="466" y="940" />
            </Array>
          </mxGeometry>
        </mxCell>
        <mxCell id="Fw4awTWvy-4AP_vdZTiC-19" value="&lt;div&gt;Output:&lt;/div&gt;&lt;div&gt;printf(&quot;There are two roots: x = %f, x = %f&quot;, x_1, x_2);&lt;/div&gt;" style="shape=parallelogram;perimeter=parallelogramPerimeter;whiteSpace=wrap;html=1;fixedSize=1;size=30;" vertex="1" parent="1">
          <mxGeometry x="173.75" y="840" width="338.75" height="60" as="geometry" />
        </mxCell>
        <mxCell id="Fw4awTWvy-4AP_vdZTiC-25" style="edgeStyle=orthogonalEdgeStyle;rounded=0;orthogonalLoop=1;jettySize=auto;html=1;exitX=0.5;exitY=1;exitDx=0;exitDy=0;entryX=0.5;entryY=0;entryDx=0;entryDy=0;" edge="1" parent="1" source="Fw4awTWvy-4AP_vdZTiC-20" target="Fw4awTWvy-4AP_vdZTiC-23">
          <mxGeometry relative="1" as="geometry">
            <mxPoint x="580" y="960" as="targetPoint" />
            <Array as="points">
              <mxPoint x="596" y="940" />
              <mxPoint x="466" y="940" />
            </Array>
          </mxGeometry>
        </mxCell>
        <mxCell id="Fw4awTWvy-4AP_vdZTiC-20" value="&lt;div&gt;Output:&lt;/div&gt;&lt;div&gt;&quot;no real roots.&quot;&lt;/div&gt;" style="shape=parallelogram;perimeter=parallelogramPerimeter;whiteSpace=wrap;html=1;fixedSize=1;size=30;" vertex="1" parent="1">
          <mxGeometry x="526.25" y="670" width="140" height="60" as="geometry" />
        </mxCell>
        <mxCell id="Fw4awTWvy-4AP_vdZTiC-23" value="Program ends." style="ellipse;whiteSpace=wrap;html=1;" vertex="1" parent="1">
          <mxGeometry x="406.25" y="990" width="120" height="50" as="geometry" />
        </mxCell>
      </root>
    </mxGraphModel>
  </diagram>
</mxfile>
